/* XPM */
static char *safedeal32_xpm[] = {
/* width height num_colors chars_per_pixel */
"    32    32      256            2",
/* colors */
"`` c #1c2224",
"`. c #1496c4",
"`# c #0c5aac",
"`a c #8c9294",
"`b c #545a5c",
"`c c #94cae4",
"`d c #1476b4",
"`e c #343e44",
"`f c #cccad4",
"`g c #649acc",
"`h c #347a94",
"`i c #747674",
"`j c #4c4a4c",
"`k c #94b6dc",
"`l c #2c5a7c",
"`m c #d4e6f4",
"`n c #1c86bc",
"`o c #2c525c",
"`p c #3492b4",
"`q c #2c768c",
"`r c #1c9ec4",
"`s c #accae4",
"`t c #b4b2b4",
"`u c #7c7a7c",
"`v c #6c6a6c",
"`w c #3c3e3c",
"`x c #2c76b4",
"`y c #0c6eac",
"`z c #54c2dc",
"`A c #346a7c",
"`B c #a4a2a4",
"`C c #bcbec4",
"`D c #ccdaec",
"`E c #ecf2fc",
"`F c #848684",
"`G c #2c3234",
"`H c #3c4644",
"`I c #3486ac",
"`J c #2496c4",
"`K c #645e5c",
"`L c #4c5254",
"`M c #acdeec",
"`N c #149ac4",
"`O c #94d6ec",
"`P c #444e54",
"`Q c #2c9ec4",
"`R c #247eb4",
"`S c #7cb6dc",
"`T c #ccc6d4",
"`U c #4c86c4",
"`V c #9c9a9c",
"`W c #2462a4",
"`X c #dcf2f4",
"`Y c #2c5274",
"`Z c #1c6ab4",
"`0 c #c4c6cc",
"`1 c #3c3a3c",
"`2 c #0c62a4",
"`3 c #ccd2dc",
"`4 c #2c7ea4",
"`5 c #7c8284",
"`6 c #6c7274",
"`7 c #246eb4",
"`8 c #2c3a3c",
".` c #9cd2ec",
".. c #849aac",
".# c #24769c",
".a c #443e3c",
".b c #acaaac",
".c c #c4bec4",
".d c #dcdae4",
".e c #948e94",
".f c #444644",
".g c #5c5254",
".h c #2c7eac",
".i c #9c969c",
".j c #5c6264",
".k c #1c82b4",
".l c #548ebc",
".m c #9cbedc",
".n c #34627c",
".o c #e4e6f4",
".p c #249ec4",
".q c #c4cad4",
".r c #bcbac4",
".s c #1472b4",
".t c #ecfafc",
".u c #8c8e94",
".v c #3c8eac",
".w c #646664",
".x c #c4daec",
".y c #1c9abc",
".z c #84cae4",
".A c #1466a4",
".B c #d4d2d4",
".C c #2c7a9c",
".D c #242a2c",
".E c #1c92c4",
".F c #949294",
".G c #5c5a5c",
".H c #2c4a6c",
".I c #544e4c",
".J c #345a6c",
".K c #2c8abc",
".L c #345664",
".M c #34aacc",
".N c #b4b6c4",
".O c #847e84",
".P c #3c424c",
".Q c #146ab4",
".R c #64b6d4",
".S c #aca6ac",
".T c #8c8a8c",
".U c #343634",
".V c #3c8aac",
".W c #545254",
".X c #2ca6cc",
".Y c #4c8ebc",
".Z c #345274",
".0 c #747274",
".1 c #2c6eac",
".2 c #e4e2ec",
".3 c #2c7ebc",
".4 c #1462b4",
".5 c #d4d6e4",
".6 c #8cd2e4",
".7 c #1c76b4",
".8 c #344a54",
"#` c #6ca2cc",
"#. c #7caed4",
"## c #acaeb4",
"#a c #6c8e9c",
"#b c #c4d6ec",
"#c c #34628c",
"#d c #b4d6ec",
"#e c #4492c4",
"#f c #fcfefc",
"#g c #2c6a94",
"#h c #64bedc",
"#i c #5ca2cc",
"#j c #ace2ec",
"#k c #84bedc",
"#l c #347eac",
"#m c #344e5c",
"#n c #1c8ec4",
"#o c #9cc6e4",
"#p c #e4eef4",
"#q c #c4e2ec",
"#r c #746e74",
"#s c #e4f2fc",
"#t c #a4cee4",
"#u c #2c2e2c",
"#v c #6cbadc",
"#w c #84b2dc",
"#x c #2c4e6c",
"#y c #b4cee4",
"#z c #2c7abc",
"#A c #3c4a54",
"#B c #b4daec",
"#C c #9cd6ec",
"#D c #346e94",
"#E c #848284",
"#F c #343a3c",
"#G c #6c666c",
"#H c #84b6dc",
"#I c #f4fafc",
"#J c #1c9acc",
"#K c #94d2e4",
"#L c #34424c",
"#M c #cccedc",
"#N c #747a7c",
"#O c #4c4e4c",
"#P c #1c8ac4",
"#Q c #1ca2cc",
"#R c #b4b6bc",
"#S c #7c7e7c",
"#T c #6c6e74",
"#U c #3c4244",
"#V c #2c7aac",
"#W c #a4a6ac",
"#X c #bcc2cc",
"#Y c #848a8c",
"#Z c #2c363c",
"#0 c #3c4a4c",
"#1 c #348aa4",
"#2 c #646264",
"#3 c #2ca2cc",
"#4 c #9c9ea4",
"#5 c #1c6eac",
"#6 c #247a9c",
"#7 c #444244",
"#8 c #c4c2cb",
"a` c #dcdee8",
"a. c #444a4c",
"a# c #2c82b0",
"aa c #24a2cc",
"ab c #d4d6dc",
"ac c #1c96c9",
"ad c #94969c",
"ae c #5c5e61",
"af c #345e6c",
"ag c #34aed4",
"ah c #146eb1",
"ai c #54565a",
"aj c #345677",
"ak c #2c72b4",
"al c #1c7abc",
"am c #0c5eac",
"an c #94badc",
"ao c #d4eaf4",
"ap c #ccdeec",
"aq c #ecf6fc",
"ar c #4c8ac4",
"as c #2472b4",
"at c #5c5654",
"au c #e4eaf4",
"av c #84cee4",
"aw c #1466b4",
"ax c #34668c",
"ay c #e4f6fc",
"az c #a4d2e4",
"aA c #9cdaec",
"aB c #74767c",
"aC c #b4b2bc",
"aD c #3c3e44",
"aE c #a4a2ac",
"aF c #bcbecc",
"aG c #84868c",
"aH c #149acc",
"aI c #2c9ecc",
"aJ c #247ebc",
"aK c #9c9aa4",
"aL c #c4c6d4",
"aM c #6c727c",
"aN c #2c3a44",
"aO c #acaab4",
"aP c #44464c",
"aQ c #1c82bc",
"aR c #249ecc",
"aS c #64666c",
"aT c #1c9ac4",
"aU c #1466ac",
"aV c #d4d2dc",
"aW c #2c7aa4",
"aX c #94929c",
"aY c #345a74",
"aZ c #34363c",
"a0 c #4c8ec4",
"a1 c #74727c",
"a2 c #2c2e34",
"a3 c #84828c",
"a4 c #4c4e54",
"a5 c #7c7e84",
"a6 c #348aac",
"a7 c #1c6eb4",
"a8 c #247aa4",
/* pixels */
"#f#f#f#f#f#f#f#f#f#f#f#f#f#f`X#j#j`X#f#f#f#f#f#f#f#f#f#f#f#f#f#f",
"#f#f#f#f#f#f#f#f#f#f#f#f#f#f`z.6av`z#f#f#f#f#f#f#f#f#f#f#f#f#f#f",
"#f#f#f#f#f#f#f#f#f#f#f#f#f#C#Q`O`O#Q`O#f#f#f#f#f#f#f#f#f#f#f#f#f",
"#f#f#f#f#f#f#f#f#f#f#f#fayag.y#K`O.y.May#f#f#f#f#f#f#f#f#f#f#f#f",
"#f#f#f#f#f#f#f#f#f#I`M#h#3`r`r#C#C`raT#3#h`Maq#f#f#f#f#f#f#f#f#f",
"#f#f#f#f#f#f#fayav.XaHaR`Q#1`q#a#a.C#1`Q.p`N.M.zay#f#f#f#f#f#f#f",
"#f#f#f#f#faq.zaRacaR`p`A#La.aS.I`w.W#7.8`A`paRac.p.zaq#f#f#f#f#f",
"#f#f#f#I.`#3aH`Qa6.J#U`v#W`0.2aG.G#W`a`u.W#Uaf.V.pac#3.`#I#f#f#f",
"#f#f#f#v#Jac#1`o#7`u`C.5.5`f.5#N`b`V.e#4`B.T`KaD.La6`J#J#v#f#f#f",
"#f#f#f#v`.`I`w.O#8.5abaVaC`C.da5ai`Ba5#O`uaK#4`a#2`1#1`..R#f#f#f",
"#f#f#f#kac.#ai.d#M`f#Wae`1#R.5a5ai`B`u.D`Ga..Oad`BaP.C.E#k#f#f#f",
"#f#f#f`c.E.#ai`f`3aB.D.D#FaL.o#EaiaE#S`GaZ.D.j`V.Fa..C.E`c#f#f#f",
"#f#f#faz#P.#`L`faVae#u#F.UaBaS#Uae#4`ua2.U#uaS.iad`j.C#P#t#f#f#f",
"#f#f#f#B`na8.W.q`T.j``#uaP.w`a#2`b`Ba1`G.U#u.j.F.ua.aW`n#d#f#f#f",
"#f#f#f#q`na8`L.r`C#2ai#4.N#8.5`5ai.i`6`G.U.DaS.u.Ta.`4aQ#q#f#f#f",
"#f#f#faoaQaW`PaC#R###8`0.c##.caBaiad`u#uaZ`G#T.e#EaP#l.kao#f#f#f",
"#f#f#faq.K#V#0aO#R.c`3`C.u`t#8a1ai.Fa5`G.U#u#Sad.O#0a#.K`E#f#f#f",
"#f#f#f#f#e`R#A#W`T##a5`wa2aC#8`6.Wad`F`G.U#Z.ead`u.8a##e#f#f#f#f",
"#f#f#f#f#i`R`o#Ea1`H#u#u`e###8`iaiad.O`G#uaP#4ad#r#m`R#i#f#f#f#f",
"#f#f#f#f`S.7.n.U`6aCa.#u#F.S`0aBaiad`i.U.D`v#4.u`KaYal#.#f#f#f#f",
"#f#f#f#f#o.s#gat`f#8aB.D#F#W.q#Nai.i.0`G#F.u.T.ua.#D`d#o#f#f#f#f",
"#f#f#f`m.3`y`x#L.S#X###F.UaOaVa5ai`B.0.D`v.FaG.O#L#Vah.h`m#f#f#f",
"#f#f#f#..s.Q#H..`vaV#8.Ta2#R.da5ai`Ba1ai.FaG`Vat..#H.Aah#.#f#f#f",
"#f#f#faha0ap.x.Y`8#WaV.q`5aC.da5ai#4.u.F.Fad.O`8.l.xapa0.s#f#f#f",
"#f#fau`k`m`g.Q#5ax`w#8aV`f`0.da5ai`B.F.Fad.F#Fax.7.A#``m`kao#f#f",
"#f#f#f`s#z`y.4`2asaj.f#XaV#8.5a5ai`V.uaK.u.a`lak`2aUawaJ`s#f#f#f",
"#f#f#f`E#pap#y.mawasaj`waE.5.d#Sai`BaK`u#Fajas`Z.m`sapau`E#f#f#f",
"#f#f#f#f#f#f#f#f`saUa7#c#Z.waLa3`b.F.W#Z#c`7.4`s#f#f#f#f#f#f#f#f",
"#f#f#f#f#f#f#f#f#f#bakaw.1.H#U.f`w`e#x.1aw`7#b#f#f#f#f#f#f#f#f#f",
"#f#f#f#f#f#f#f#f#f#f`E`g`#`Z`W`Y.Z`W`Z`#`g`E#f#f#f#f#f#f#f#f#f#f",
"#f#f#f#f#f#f#f#f#f#f#f#f#bar`#.4am`#`U#b#f#f#f#f#f#f#f#f#f#f#f#f",
"#f#f#f#f#f#f#f#f#f#f#f#f#f#f`D`g`g`D#f#f#f#f#f#f#f#f#f#f#f#f#f#f"
};
