/* XPM */
static char *safedeal64_xpm[] = {
/* width height num_colors chars_per_pixel */
"    64    64      256            2",
/* colors */
"`` c #1c2122",
"`. c #1492bc",
"`# c #045aac",
"`a c #545a5c",
"`b c #8c929c",
"`c c #1479b3",
"`d c #9ccce4",
"`e c #5c9ecc",
"`f c #347694",
"`g c #345a68",
"`h c #3492c4",
"`i c #2c3f49",
"`j c #3489c0",
"`k c #d4d4dd",
"`l c #8cbadc",
"`m c #0c6ab4",
"`n c #343f41",
"`o c #74777b",
"`p c #1ca9ce",
"`q c #1488bc",
"`r c #2c6294",
"`s c #34a6cc",
"`t c #3478b1",
"`u c #acdeec",
"`v c #1c9fc9",
"`w c #344f59",
"`x c #242f2e",
"`y c #4487a1",
"`z c #245e8c",
"`A c #5cbcdc",
"`B c #2478b0",
"`C c #d4eef4",
"`D c #acaeb4",
"`E c #8caac0",
"`F c #34a1c6",
"`G c #7c7d83",
"`H c #2494bf",
"`I c #0c62a7",
"`J c #1c6ca9",
"`K c #4487ba",
"`L c #74a4d4",
"`M c #3c6a80",
"`N c #2c6eac",
"`O c #646a6c",
"`P c #cccad4",
"`Q c #44798f",
"`R c #343634",
"`S c #1481b7",
"`T c #0c56a4",
"`U c #3481b4",
"`V c #ecf4fc",
"`W c #bcbec6",
"`X c #84868c",
"`Y c #444546",
"`Z c #4c5050",
"`0 c #9c999f",
"`1 c #2c5e8c",
"`2 c #244e74",
"`3 c #2487bb",
"`4 c #34b6d4",
"`5 c #c4dfec",
"`6 c #4ca0be",
"`7 c #448eb7",
"`8 c #1c9ac2",
".` c #54aacc",
".. c #1c72b0",
".# c #3c7294",
".a c #242828",
".b c #2c3738",
".c c #4492bc",
".d c #24465c",
".e c #d4e2f1",
".f c #9cbdd9",
".g c #2480b2",
".h c #a4a5a9",
".i c #1464ab",
".j c #4482b8",
".k c #1493c4",
".l c #145da8",
".m c #344852",
".n c #1caed4",
".o c #dcf2fc",
".p c #249ac0",
".q c #747276",
".r c #bcd8ec",
".s c #948e94",
".t c #5c6264",
".u c #1c78ae",
".v c #9cdaec",
".w c #3c7e9c",
".x c #3c8ebc",
".y c #148ebf",
".z c #44a6c8",
".A c #2c9ec4",
".B c #444e54",
".C c #7cbadc",
".D c #b4b6bd",
".E c #3ca1c9",
".F c #1c6ebc",
".G c #4c88be",
".H c #2c70b7",
".I c #447e90",
".J c #3482bc",
".K c #8c8e94",
".L c #c4e8f4",
".M c #449ab4",
".N c #a4aaac",
".O c #949aa0",
".P c #64a2d4",
".Q c #3476a4",
".R c #3c5d67",
".S c #3c88b9",
".T c #1472af",
".U c #548ea4",
".V c #24a0ca",
".W c #3c565c",
".X c #1c60a4",
".Y c #246bab",
".Z c #6c7278",
".0 c #1c80b6",
".1 c #c4c6d1",
".2 c #dcdae2",
".3 c #3c4143",
".4 c #24a8cd",
".5 c #2c6aa0",
".6 c #3c5054",
".7 c #4c8ea4",
".8 c #2c78ba",
"#` c #7c8288",
"#. c #7ccae4",
"## c #74b6d8",
"#a c #24567c",
"#b c #b4d0e8",
"#c c #44b5d4",
"#d c #f4fafc",
"#e c #3c627c",
"#f c #9cc2e4",
"#g c #bce1ed",
"#h c #64abd4",
"#i c #548ec8",
"#j c #e4eef2",
"#k c #84b3d7",
"#l c #2cb2d4",
"#m c #acd8ec",
"#n c #38aed4",
"#o c #54565a",
"#p c #346689",
"#q c #2c4a68",
"#r c #1c66ac",
"#s c #243a48",
"#t c #8cc2dc",
"#u c #447284",
"#v c #343a3c",
"#w c #474a4c",
"#x c #9c9ea3",
"#y c #288ebc",
"#z c #d4e6f4",
"#A c #2c4654",
"#B c #747e84",
"#C c #ccd2dc",
"#D c #2c5674",
"#E c #74c2dc",
"#F c #4c9acc",
"#G c #84d2e4",
"#H c #0c5ca9",
"#I c #34709c",
"#J c #8c8a8d",
"#K c #4472a4",
"#L c #4c95ca",
"#M c #2c82bc",
"#N c #4c8294",
"#O c #bce6f4",
"#P c #349ac4",
"#Q c #5cc2dc",
"#R c #64b2d4",
"#S c #345e80",
"#T c #4c8ebc",
"#U c #2472b7",
"#V c #2466a4",
"#W c #242120",
"#X c #1c93bc",
"#Y c #5c5d61",
"#Z c #949399",
"#0 c #3c7793",
"#1 c #dcd6e4",
"#2 c #146daf",
"#3 c #346698",
"#4 c #3c79b4",
"#5 c #2c3030",
"#6 c #b4b2bc",
"#7 c #2c96c0",
"#8 c #446e7e",
"a` c #6c6c70",
"a. c #4c7a8c",
"a# c #3c3634",
"aa c #3c81af",
"ab c #c4c2cb",
"ac c #545254",
"ad c #2c2928",
"ae c #2c455f",
"af c #dcdeec",
"ag c #1c95c5",
"ah c #e4f5fb",
"ai c #646568",
"aj c #bcbac4",
"ak c #3472b4",
"al c #3c81bf",
"am c #6ca3d0",
"an c #4cb4d8",
"ao c #147abc",
"ap c #a4cee4",
"aq c #649ccc",
"ar c #94bcdc",
"as c #1c89bc",
"at c #4488ac",
"au c #2476bc",
"av c #dcecf4",
"aw c #0c63b4",
"ax c #4488c4",
"ay c #cccedc",
"az c #f4f6fc",
"aA c #848a94",
"aB c #2c5274",
"aC c #cce0ec",
"aD c #4ca1cc",
"aE c #3c71a4",
"aF c #a4a6b4",
"aG c #1464b4",
"aH c #145eb4",
"aI c #c4d8ec",
"aJ c #44829c",
"aK c #cce9f4",
"aL c #3c5e74",
"aM c #3c8ac4",
"aN c #3c5264",
"aO c #84cee4",
"aP c #fcfefc",
"aQ c #a4c6e4",
"aR c #0c5eb4",
"aS c #346eac",
"aT c #3ca6c8",
"aU c #2c9ac4",
"aV c #1c8ec1",
"aW c #4ca6c4",
"aX c #4c9ab6",
"aY c #acaab2",
"aZ c #3c769f",
"a0 c #848288",
"a1 c #2c3a44",
"a2 c #94c2e4",
"a3 c #a49ea4",
"a4 c #345a74",
"a5 c #1c9acc",
"a6 c #5caacc",
"a7 c #24aed4",
"a8 c #2c6aac",
/* pixels */
"aPaPaPaPaPaPaPaPaPaPaPaPaPaPaPaPaPaPaPaPaPaPaPaPaPaPaPaPaPaP.v.o.o.vaPaPaPaPaPaPaPaPaPaPaPaPaPaPaPaPaPaPaPaPaPaPaPaPaPaPaPaPaPaP",
"aPaPaPaPaPaPaPaPaPaPaPaPaPaPaPaPaPaPaPaPaPaPaPaPaPaPaPaPaPaK#lahaha7aKaPaPaPaPaPaPaPaPaPaPaPaPaPaPaPaPaPaPaPaPaPaPaPaPaPaPaPaPaP",
"aPaPaPaPaPaPaPaPaPaPaPaPaPaPaPaPaPaPaPaPaPaPaPaPaPaPaPaPah`4.nahaha7`4ahaPaPaPaPaPaPaPaPaPaPaPaPaPaPaPaPaPaPaPaPaPaPaPaPaPaPaPaP",
"aPaPaPaPaPaPaPaPaPaPaPaPaPaPaPaPaPaPaPaPaPaPaPaPaPaPaPaP#Q`pa7ahaha7`p#QaPaPaPaPaPaPaPaPaPaPaPaPaPaPaPaPaPaPaPaPaPaPaPaPaPaPaPaP",
"aPaPaPaPaPaPaPaPaPaPaPaPaPaPaPaPaPaPaPaPaPaPaPaPaPaPaP#G`p`v.4ahah.4`p`paOaPaPaPaPaPaPaPaPaPaPaPaPaPaPaPaPaPaPaPaPaPaPaPaPaPaPaP",
"aPaPaPaPaPaPaPaPaPaPaPaPaPaPaPaPaPaPaPaPaPaPaPaPaPaP`u`p`v`v.4ahah.4`v`v`p`uaPaPaPaPaPaPaPaPaPaPaPaPaPaPaPaPaPaPaPaPaPaPaPaPaPaP",
"aPaPaPaPaPaPaPaPaPaPaPaPaPaPaPaPaPaPaPaPaPaPaPaPaPaP#c`v`v`v.Vahah.4`8`v`v#naPaPaPaPaPaPaPaPaPaPaPaPaPaPaPaPaPaPaPaPaPaPaPaPaPaP",
"aPaPaPaPaPaPaPaPaPaPaPaPaPaPaPaPaPaPaPaPaPaPaPaPaP`C#l`v`8`8.Vah#j.4`8`8`v#naKaPaPaPaPaPaPaPaPaPaPaPaPaPaPaPaPaPaPaPaPaPaPaPaPaP",
"aPaPaPaPaPaPaPaPaPaPaPaPaPaPaPaPaPaPaPaPaPaP#O#.#c`v`v`8#X`8.pahah.V#X`8#X`v`p#c#..L#daPaPaPaPaPaPaPaPaPaPaPaPaPaPaPaPaPaPaPaPaP",
"aPaPaPaPaPaPaPaPaPaPaPaPaPaPaPaPaPaPaPavaO#n`v`va5`8ag`.#X#X`8ahah`v#X`.`.#X#X`v`v`v#naOavaPaPaPaPaPaPaPaPaPaPaPaPaPaPaPaPaPaPaP",
"aPaPaPaPaPaPaPaPaPaPaPaPaPaPaPaPaP#g`A`p`va5`8ag`.#X#X.A`s.EaT#j#j`FaT`F.A.p#X.y#X`8`8`v`v`A#gaPaPaPaPaPaPaPaPaPaPaPaPaPaPaPaPaP",
"aPaPaPaPaPaPaPaPaPaPaPaPaPaPaP`uan`v`vagag`.`.`H`FaT`6`y#8.R.6acac`w.W#8aJ.M.z`F.p.y#Xag`8a5`v#c`uaPaPaPaPaPaPaPaPaPaPaPaPaPaPaP",
"aPaPaPaPaPaPaPaPaPaPaPaPaP`u#ca5a5.kag`..y.A.z`6.I.6#5#W``#W#5.b#5#5ad#W#W.b`w`QaX.z.A#X.y#Xaga5`v#c#maPaPaPaPaPaPaPaPaPaPaPaPaP",
"aPaPaPaPaPaPaPaPaPaPaP#gana5.kag`.`.aV`FaW.7.R#5``.a.3`O#J.h#6.3`Ra0`G`O`a.3ad#W.b`g`yaW`F#X.y`.#X.k`van#gaPaPaPaPaPaPaPaPaPaPaP",
"aPaPaPaPaPaPaPaPaP`C`Aa5a5ag#X.y#X`F`6#N`w.a#W.3.q.h`P`k`k`kay`Y#5#Z`0#x`0.s`G`a.3#W.a.m.I`6aT`H`q#X#X.k`v`AaKaPaPaPaPaPaPaPaPaP",
"aPaPaPaPaPaPaPah#Ea5a5.k.k.y#X`F`6a..m#W.aac#Z.1`k`k`P.1.1`P.1.3`R#J#Z#Z.K#Z`0`0#Z`o#w#5.a`n`Q`6.E`H.y.kagag`v#EahaPaPaPaPaPaPaP",
"aPaPaPaPaPaP.L.pa5a5a5.k#X`F.M#u`n#W.a#Y.h#C`kay.1`P.1`P`Pay`P.3`R.K#Z#Z#Z#Z.s`b#Z`0#Z`Gac#5#W`i#8`6.E#X.k.ka5a5.V`5aPaPaPaPaPaP",
"aPaPaPaPaPaP#maga5.k.k#7.M#8#v#W.aai`D`k`k`P.1`P`P`P`P`P`P`P`P.3.b#J.O#Z.s.O`0.O.s#Z#Z`0`0a0#o#5#Wa1`MaX#P.y.ka5ag#maPaPaPaPaPaP",
"aPaPaPaPaPaP`5ag.k.k#X.7`R#W#5ai#6`k`k.1`P`P`P`P`P#Cay`P.1ay.1`Y`R.K`0.s`0.Z`aa0`0#Z#Z.s.K.O#x`X#o#5ad#5.U`H.kag.k`5aPaPaPaPaPaP",
"aPaPaPaPaPaPaK#X.k.yag.#.a#o.D`k`k.1`P`P.1`Payay`W.K.Day`P`P`P.3.b#J#Z#Z#xai#W`R`Z`G#Z.O#Z#Z#Z#Z`0#J.Bad#0`H.y.kag#zaPaPaPaPaPaP",
"aPaPaPaPaPaP#j`H.k.yag`f#W`Gaf.1`P`P.1`Payay`D.q.3ad#6ay`P`P.1`Y`R.K#Z#Z`0`O#5`R#5#5`Z`o`0.s#Z#Z#Z#xai.a`f`H`q.k`HavaPaPaPaPaPaP",
"aPaPaPaPaPaP`VaUaV`qaVaZ#W`o`k.1`P`P`Pay.hai`R.a#5#vaj`P.1`P`P.3.b.s#Z#Z`0`Oad`R`R.b#5ad`Z#J#Z#Z#Z`0#Y.a.##y`q.y#7`VaPaPaPaPaPaP",
"aPaPaPaPaPaPaP#PaV`qaV#0.a`o`k.1`Pay`Dai#5.a`R`R.b`R.D#C`P`P.1.3`R#J.O.s#x`O#5.b`R#5`R.b`R.K#Z#Z.s`0#Y.a#0`H`qaV.EaPaPaPaPaPaPaP",
"aPaPaPaPaPaPaPaD`q`qaV#0#W`o`k`P.1`k.K```R`R.b`R#5`R.Day`P#C`k`Y.b#J`0.s`0`Oad`R.b`R`R#5.3#Z#Z#Z#Z`0.t#W`Q#y`q`qaDaPaPaPaPaPaPaP",
"aPaPaPaPaPaPaPa6`qasasaZ.aai`k.1`P`k.Oad#v#5`R#5`R`R.DabaY`0.K#v`R.K#Z#Z`0ai`x`R#5`R#5#5.3#J#Z#Z#Z`0.t.a#0#y`S`qa6aPaPaPaPaPaPaP",
"aPaPaPaPaPaPaP#R`q`Sas.w.aai`k`P.1ay#Z.a`R.b`R#5.b#vai#w#5````#5#v#J#Z#Z#Zai#5`R.b`R`R#5.3#J#Z#Z.s#x#Y.a#0`3`q.0#haPaPaPaPaPaPaP",
"aPaPaPaPaPaPaP##.0.0asaJ.aai`k.1.1`P.K.a#v#5#v#v#5.a``#5`Zai`G#v`R.K`0#J#Zai`x`R#5`R.b#5.3`X#J.K#Z#Z`aadaJ`3`S.0##aPaPaPaPaPaPaP",
"aPaPaPaPaPaPaP#t`q.0.0.Sad`O`kabajabaAad#v`R.a.a#vai`0aj`P`k`k.3`R.K#Z#J#Z.tad`R.b`R`R#5.3#J#J#J#J`0ac`x`y`3.0`S#taPaPaPaPaPaPaP",
"aPaPaPaPaPaPaP`d`S.0.0`y.a#Y`Paj.Dab.K.a.a#5`a#Zab`P.1`Wajajab.3`R.K.K`X.s.t#5`R#5#5`R#5.3#J`X#J`X#Z#o.a`y`3.0`S`daPaPaPaPaPaPaP",
"aPaPaPaPaPaPaP#m`S`S.0`K#5#o.1aj.Daj#Z`x.ZaY`P.1.D#6`D#6.D.D.1.3`R.K#J#J#Jai`x`R`R.b`R#5`Y.s`X#J`X.s#w#5`7.g`c.0#baPaPaPaPaPaPaP",
"aPaPaPaPaPaPaP`5`S.u`c`7.b`Z`W.D#6.DaYaYayab#6.D#6#6.D#6.Daj`W.3`R#J#J`X#Zai#5.b`R#5`R#5#w#Z#J`X#J#J#w#5.7.g.u`S#gaPaPaPaPaPaPaP",
"aPaPaPaPaPaPaP#z`S.u.u`7a1`Yaj.D.D#6.D`W.Daj`W`Wajaj.D.D#6.Daj`Y.b#J#Ja0#Za`.a`R#5`R`R.a#o#Z#J`X`X#J.3a1#T.g`c.0aKaPaPaPaPaPaPaP",
"aPaPaPaPaPaPaPah`3.u`c.S`n.3#6.D#6.Dajajabab`P`Pay.Dajaj#6.Daj.3`R`X#J`X`0a``x`R`R#5`R#5.t`0.K#J#J#Ja#`i.c.0.u.g#jaPaPaPaPaPaPaP",
"aPaPaPaPaPaPaP#d`h`c.u.x.m`R`Daj#6.Daj`W.1`k`kaY.Z.3#6ab`D.D.D.3`R`X#Ja0#x.q.a`R.b`R.bada`#x.s#J`X`X`R.m.c`B`c`h#daPaPaPaPaPaPaP",
"aPaPaPaPaPaPaPaP#F`c.u.J.Wad.haj#6.Daj`P`P#x#Y#5.a#5.Dab#6.D#6`Y#5`X#J`X.h`o.a`R`R#5`R#5`G.h#Z.K.Ka0#5`w.x.u.uaXaPaPaPaPaPaPaPaP",
"aPaPaPaPaPaPaPaP#h`c..#MaL.a.Oaj`Dabab.O#o`x.a`R`R#5.D.1#6.D#6.3`Ra0#J#J.h`o.a`R#5`R.b#v.K.h#Z.K.s`oad`g.x...T#haPaPaPaPaPaPaPaP",
"aPaPaPaPaPaPaPaP`l`c.u#M`M#W`Xayaj.O#o.a.a`R`R.b#5`R#6ab#6.Daj.3`R`X#Ja0a3.q.a`R.b`R#5`Y.h`0#Z#J.s`O.a#S.S.u.T`laPaPaPaPaPaPaPaP",
"aPaPaPaPaPaPaPaPapao.T`B#0.aai.h`Z``.a`Z#v`R#5`R#5`R`D`W`D.D.D.3`R`X#Ja0#xa``x`R`R.badaiaY#Z.K#J.K#Y.a.##M...T`daPaPaPaPaPaPaPaP",
"aPaPaPaPaPaPaPaP`5ao.T.uaa.b`R````#Y.hab.3#5`R.b`R#5`Daj#6.Daj.3`R#J#Ja0#Za`.a`R#5`R#5`XaY.K.s`X.s`Y`xaa.Q.T`c`5aPaPaPaPaPaPaPaP",
"aPaPaPaPaPaPaPaP#j.u.T#2.S.mad#o#x.1`W`Pai.a`R`R#5`R.Naj#6.D`W`Y#5#J#J`X#Z`O#5`R`R#5#w.h#Z.K#J#J`X`R`i.S.u.T.0#jaPaPaPaPaPaPaPaP",
"aPaPaPaPaPaPaPaPaP#F.T#2`U#S#W#Zay`D`D.1#x#5.b`R#5`RaF.D.Dajab.3`R.K#J`X.sai.a`R.b.a`o.h#J#J`X.s.Zad#D.S#2.T#LaPaPaPaPaPaPaPaPaP",
"aPaPaPaPaPaPaPaP#d#L#2#2`B#0.a#Y`P.D.D#6.1#w#5`R#5`RaFaj.Daj.1.3`R.K.K#J.Kai#5`R#5`Y`0#Za0`X`X#Z#o.a.#`U#2#2#LazaPaPaPaPaPaPaPaP",
"aPaPaPaPaPaPaP#j`j#2.T#2#2`K`i`Rajab.D#6.1#Z.a`R#5`RaF`Waj`W.1`Y#5.s`b#J.Kai.a#v#5a0.Oa0#J`X#J#J`Ra1.S`B#2#2#2`j#jaPaPaPaPaPaPaP",
"aPaPaPaPaPaPaP`l.T.T#2#2#2`U#e#W#``kajaj#6ab#o.a#v`RaYabab`P.1.3`R.K#Z.K.sai#5.aai`0#J`X#J`X`0`Oad#Dat#2#2#2.T#2`laPaPaPaPaPaPaP",
"aPaPaPaPaPaPaPaM#2#2#2#2`J`U`E`R.3.1.1`Waj`W`D`R#5#v`D.1`P`P`P.3`R.K`0.s#Zai```a`0#J`X#J#J.K#Z.3`R`E.J.Y#2#2#2#2aM#daPaPaPaPaPaP",
"aPaPaPaPaPaP.r#2.F`m#2.Yam#jaP#`.aa0#1.1.1ajab`b.a`R.Day.1ay.1`Y.b.K#Z#Z`0#Y`Z#Z#J#J#J.K#J`0a`.a`oaPaham.Y`J#2.T#2.raPaPaPaPaPaP",
"aPaPaPaPaPaP.P`m.T#2#T`5aPaPa2.Q#5`R.D`k.1`P`W.1`G.a.Day`P`P`P.3`R.K#Z#Z#Z`X#J`b#Z.K.s#Z#Z.K`R#5.Q#f#daP`5#T#2#2#2.PaPaPaPaPaPaP",
"aPaPaPaPaP`V..#2`t#faPaP.rax.i`Ua4#W`a`k.1`P`P.1.1a0aYay`P`P.1`Y#5.s#Z#Z#Z#Z#Z#Z#Z#Z#Z#Z`0`ZadaB`K`J`K.raPaPaQ`U#2..`VaPaPaPaPaP",
"aPaPaPaPaPar`J#k`VaPavaq#2.i#2`J.j`i.a`G.2.1`P`P`P.1.1`P`P`P`P.3`R.K#Z#Z#Z#Z#Z#Z#Z#Z.s#x`Oad#s.j.8.i.i#2aqavaP`V#k`J.faPaPaPaPaP",
"aPaPaPaPaP.f.eaPaz#k#U.i.i#2.i.i`taZ#5.a#Z`k.1`P`P`P`P.1`Pay.1.3`R.K#Z#Z#Z#Z#Z#Z#Z.s`0`o#5#5#I.j.i.i#2.i.i..#kazaP.e.faPaPaPaPaP",
"aPaPaPaPaPaPaP.f.8#2aG#2#2.i.i.i.i.j#pad#5#x.2.1.1`P`Pay.1`P`P.3`R.K`0#Z#Z#Z#Z#Z#Z`0`o#5#5`z.G.i.i.i.i#2#2.i.i.8#faPaPaPaPaPaPaP",
"aPaPaPaPaPaParal#U#2`mawaGaw.i.i`I.i.G#Sad#5`b.2`P.1`P`P`Pay.1`Y.b.K#Z#Z#Z#Z#Z.s#x`o#5#5`2#T#r.i.i.i.i`I#2aw....alaraPaPaPaPaPaP",
"aPaPaPaPaPaPaPaP`V.e#b#f`L#L#kal.i.i.i`K#S#5.a`o#C`k.1.1`P`P`P.3`R.K#Z#Z#Z.s.O`0.t#5#5#a.G#V`I.iaa#k#T`Lar#b#z`VaPaPaPaPaPaPaPaP",
"aPaPaPaPaPaPaPaPaPaPaPaPaPaPaP#zau.i#H.X`K#p#5.a`Z#6.2`P.1`P.1.3`R.K#Z#Z#Z#x`X#wad#5`1.j#V`I.iau#zaPaPaPaPaPaPaPaPaPaPaPaPaPaPaP",
"aPaPaPaPaPaPaPaPaPaPaPaPaPaPaPaPaC#U.i`I.lalaE`iad#5`G.1.2`P.1`Y.b#J`0`0#Zai`Rad#s.5.j.X#H.i#UaCaPaPaPaPaPaPaPaPaPaPaPaPaPaPaPaP",
"aPaPaPaPaPaPaPaPaPaPaPaPaPaPaPaPaP.e.8aw.i#Hak.jaB#5.a.3`b`P`k.3`R#Z#Za`.3ad`x`2aZ`t.l`I.i.8aCaPaPaPaPaPaPaPaPaPaPaPaPaPaPaPaPaP",
"aPaPaPaPaPaPaPaPaPaPaPaPaPaPaPaPaPaP#j.jaw.i#H.XalaSae#5#W#waA.3`R`O`Y.a#5`i.5#4a8#H.l`I.javaPaPaPaPaPaPaPaPaPaPaPaPaPaPaPaPaPaP",
"aPaPaPaPaPaPaPaPaPaPaPaPaPaPaPaPaPaPaPaz`LaR`I#H`T.5#4#3#A.a.a`R#5ad#5#s`r`t`N.l#H#Haw`L#daPaPaPaPaPaPaPaPaPaPaPaPaPaPaPaPaPaPaP",
"aPaPaPaPaPaPaPaPaPaPaPaPaPaPaPaPaPaPaPaPaP#b.HaG.l#H.l`N#4#3ae.b.b.d`rakaS.X`T#H.i.H#baPaPaPaPaPaPaPaPaPaPaPaPaPaPaPaPaPaPaPaPaP",
"aPaPaPaPaPaPaPaPaPaPaPaPaPaPaPaPaPaPaPaPaPaP`VamaG#H#H`T.l#V.HaE#K.Ha8.l#H#H.l.iam`VaPaPaPaPaPaPaPaPaPaPaPaPaPaPaPaPaPaPaPaPaPaP",
"aPaPaPaPaPaPaPaPaPaPaPaPaPaPaPaPaPaPaPaPaPaPaPaPaI#iaG#H#H`T`T.X.X`T`T#H.laR#iaCaPaPaPaPaPaPaPaPaPaPaPaPaPaPaPaPaPaPaPaPaPaPaPaP",
"aPaPaPaPaPaPaPaPaPaPaPaPaPaPaPaPaPaPaPaPaPaPaPaPaPaPaI#iaHaH.l#H#H.laH.l#iaIaPaPaPaPaPaPaPaPaPaPaPaPaPaPaPaPaPaPaPaPaPaPaPaPaPaP",
"aPaPaPaPaPaPaPaPaPaPaPaPaPaPaPaPaPaPaPaPaPaPaPaPaPaPaPaPaIaqaG`T`##raqaIaPaPaPaPaPaPaPaPaPaPaPaPaPaPaPaPaPaPaPaPaPaPaPaPaPaPaPaP",
"aPaPaPaPaPaPaPaPaPaPaPaPaPaPaPaPaPaPaPaPaPaPaPaPaPaPaPaPaPaP`V.f.f`VaPaPaPaPaPaPaPaPaPaPaPaPaPaPaPaPaPaPaPaPaPaPaPaPaPaPaPaPaPaP"
};
