/* XPM */
static char *safedeal16_xpm[] = {
/* width height num_colors chars_per_pixel */
"    16    16      256            2",
/* colors */
"`` c #ffffff",
"`. c #fefefe",
"`# c #fbfdfe",
"`a c #f8fcfd",
"`b c #9ad9ea",
"`c c #fcfdfe",
"`d c #fdfefe",
"`e c #99d8eb",
"`f c #5dc1df",
"`g c #99d8ea",
"`h c #f4fafc",
"`i c #a6dcee",
"`j c #53b8d9",
"`k c #1989ae",
"`l c #569bb1",
"`m c #579db4",
"`n c #1d8db0",
"`o c #55b9d9",
"`p c #a5d8eb",
"`q c #3daad0",
"`r c #1f7a9a",
"`s c #466e7d",
"`t c #868e96",
"`u c #807c80",
"`v c #605d5e",
"`w c #6c7378",
"`x c #426979",
"`y c #247f9e",
"`z c #3fabd2",
"`A c #c9e6f2",
"`B c #0e89b9",
"`C c #4c6c79",
"`D c #9d999f",
"`E c #cbc5cc",
"`F c #d5d4df",
"`G c #a9abb3",
"`H c #797b7e",
"`I c #8b898d",
"`J c #888284",
"`K c #787476",
"`L c #466571",
"`M c #1189b9",
"`N c #c9e6f1",
"`O c #d0e9f4",
"`P c #066e9a",
"`Q c #9b969a",
"`R c #ceced8",
"`S c #4b4f53",
"`T c #7f8187",
"`U c #a3a5ac",
"`V c #78797c",
"`W c #585b5d",
"`X c #2c3233",
"`Y c #929196",
"`Z c #7a7374",
"`0 c #0d729d",
"`1 c #d0e8f3",
"`2 c #dceef6",
"`3 c #086c9b",
"`4 c #9a9da3",
"`5 c #92939a",
"`6 c #0d1312",
"`7 c #636669",
"`8 c #6c6f73",
".` c #7b7c7f",
".. c #5d5e61",
".# c #212626",
".a c #7c7c80",
".b c #75777c",
".c c #0f71a0",
".d c #dcedf6",
".e c #e7f3f9",
".f c #106f9f",
".g c #878b91",
".h c #abaab1",
".i c #9e9fa5",
".j c #c3c2cb",
".k c #96969e",
".l c #767679",
".m c #595b5d",
".n c #262b2b",
".o c #7e7d81",
".p c #6d7073",
".q c #1672a3",
".r c #e6f2f9",
".s c #f4f9fc",
".t c #1f78ab",
".u c #787f86",
".v c #c0bec5",
".w c #888b8f",
".x c #919398",
".y c #97989d",
".z c #747577",
".A c #5f6162",
".B c #292e2f",
".C c #908d90",
".D c #646c71",
".E c #247bad",
".F c #4593c3",
".G c #50626d",
".H c #7f7e80",
".I c #1f2525",
".J c #737579",
".K c #9c9da3",
".L c #747478",
".M c #575a5c",
".N c #3c4042",
".O c #9c989a",
".P c #52626e",
".Q c #f6f9fc",
".R c #2e84c2",
".S c #375d76",
".T c #c3bdc2",
".U c #595d61",
".V c #6c6e73",
".W c #a5a6ae",
".X c #77767a",
".Y c #525355",
".Z c #66696d",
".0 c #908a8b",
".1 c #395d76",
".2 c #2f85c1",
".3 c #f5f9fc",
".4 c #b7d3e8",
".5 c #468fc6",
".6 c #79a2c1",
".7 c #8a8b90",
".8 c #b9b9c2",
"#` c #8f9198",
"#. c #a8a9b1",
"## c #737477",
"#a c #818286",
"#b c #96959a",
"#c c #68686a",
"#d c #7ba5c4",
"#e c #478fc5",
"#f c #d1e1ef",
"#g c #5e9acb",
"#h c #1f73b8",
"#i c #2d577a",
"#j c #a6a1a2",
"#k c #e3e2ee",
"#l c #a0a3ab",
"#m c #737679",
"#n c #a7a5ab",
"#o c #7d7775",
"#p c #2f5a7b",
"#q c #2073b7",
"#r c #5d9acb",
"#s c #d1e2ef",
"#t c #fbfcfd",
"#u c #d2e3f1",
"#v c #c8dced",
"#w c #4587c4",
"#x c #295377",
"#y c #8f9094",
"#z c #9f9c9f",
"#A c #75716f",
"#B c #706f72",
"#C c #2a5479",
"#D c #4589c4",
"#E c #edf4f9",
"#F c #679dd1",
"#G c #165693",
"#H c #36516c",
"#I c #324d68",
"#J c #185896",
"#K c #edf3f9",
"#L c #fdfdfe",
"#M c #c0d5ec",
"#N c #4c87c6",
"#O c #4c88c6",
"#P c #000000",
"#Q c #000000",
"#R c #000000",
"#S c #000000",
"#T c #000000",
"#U c #000000",
"#V c #000000",
"#W c #000000",
"#X c #000000",
"#Y c #000000",
"#Z c #000000",
"#0 c #000000",
"#1 c #000000",
"#2 c #000000",
"#3 c #000000",
"#4 c #000000",
"#5 c #000000",
"#6 c #000000",
"#7 c #000000",
"#8 c #000000",
"a` c #000000",
"a. c #000000",
"a# c #000000",
"aa c #000000",
"ab c #000000",
"ac c #000000",
"ad c #000000",
"ae c #000000",
"af c #000000",
"ag c #000000",
"ah c #000000",
"ai c #000000",
"aj c #000000",
"ak c #000000",
"al c #000000",
"am c #000000",
"an c #000000",
"ao c #000000",
"ap c #000000",
"aq c #000000",
"ar c #000000",
"as c #000000",
"at c #000000",
"au c #000000",
"av c #000000",
"aw c #000000",
"ax c #000000",
"ay c #000000",
"az c #000000",
"aA c #000000",
"aB c #000000",
"aC c #000000",
"aD c #000000",
"aE c #000000",
"aF c #000000",
"aG c #000000",
"aH c #000000",
"aI c #000000",
"aJ c #000000",
"aK c #000000",
"aL c #000000",
"aM c #000000",
"aN c #000000",
"aO c #000000",
"aP c #000000",
"aQ c #000000",
"aR c #000000",
"aS c #000000",
"aT c #000000",
"aU c #000000",
"aV c #000000",
"aW c #000000",
"aX c #000000",
"aY c #000000",
"aZ c #000000",
"a0 c #000000",
"a1 c #000000",
"a2 c #000000",
"a3 c #000000",
"a4 c #000000",
"a5 c #000000",
"a6 c #000000",
"a7 c #000000",
"a8 c #000000",
/* pixels */
"```````.`#```a`b`b`a```#`.``````",
"`````c`.`d```e`f`f`g```d`.`c````",
"```.```h`i`j`k`l`m`n`o`i`h```.``",
"```#`p`q`r`s`t`u`v`w`x`y`z`p`#``",
"```A`B`C`D`E`F`G`H`I`J`K`L`M`N``",
"```O`P`Q`R`S`T`U`V`W`X`Y`Z`0`1``",
"```2`3`4`5`6`7`8.`...#.a.b.c.d``",
"``.e.f.g.h.i.j.k.l.m.n.o.p.q.r``",
"``.s.t.u.v.w.x.y.z.A.B.C.D.E.s``",
"```..F.G.H.I.J.K.L.M.N.O.P.F`.``",
"``.Q.R.S.T.U.V.W.X.Y.Z.0.1.2.3``",
"``.4.5.6.7.8#`#.###a#b#c#d#e.4``",
"``#f#g#h#i#j#k#l#m#n#o#p#q#r#s``",
"``#t#u#v#w#x#y#z#A#B#C#D#v#u#t``",
"`````.``#E#F#G#H#I#J#F#K```.````",
"````#L#L`.``#M#N#O#M```.#L#L````"
};
