<?xml version="1.0" encoding="utf-8"?>
<!-- Generator: Adobe Illustrator 23.0.0, SVG Export Plug-In . SVG Version: 6.00 Build 0)  -->
<svg version="1.1"
	 id="ic_empty_zpiv" xmlns:cc="http://creativecommons.org/ns#" xmlns:dc="http://purl.org/dc/elements/1.1/" xmlns:rdf="http://www.w3.org/1999/02/22-rdf-syntax-ns#" xmlns:svg="http://www.w3.org/2000/svg"
	 xmlns="http://www.w3.org/2000/svg" xmlns:xlink="http://www.w3.org/1999/xlink" x="0px" y="0px" viewBox="0 0 100 100"
	 style="enable-background:new 0 0 100 100;" xml:space="preserve">
<style type="text/css">
	.st0{fill:#425EC1;}
	.st1{fill:#666666;}
	.st2{fill-rule:evenodd;clip-rule:evenodd;fill:#FFFFFF;}
</style>
<g id="Group_9086">
	<path id="Path_19031" class="st0" d="M50,26c-13.3,0-24,10.7-24,24s10.7,24,24,24s24-10.7,24-24S63.3,26,50,26z M50,68
		c-9.9,0-18-8.1-18-18s8.1-18,18-18s18,8.1,18,18S59.9,68,50,68z"/>
	<g id="Group_9085">
		<g id="Group_9083">
			<path id="Rectangle_4749" class="st1" d="M83,56h2v4h-2V56z"/>
			<path id="Rectangle_4750" class="st1" d="M83,44h2v8h-2V44z"/>
			<path id="Rectangle_4751" class="st1" d="M15,48h2v8h-2V48z"/>
			<path id="Rectangle_4752" class="st1" d="M15,40h2v4h-2V40z"/>
			<path id="Path_19033" class="st1" d="M95.2,71H85v-7h-2v9h7.8L76,90.5L61.2,73H68v-2h-4.5c11.6-7.5,15-22.9,7.5-34.5
				c-6.4-9.9-18.9-14-29.9-9.8L24,6.5L4.8,29H15v7h2v-9H9.2L24,9.5L38.8,27H32v2h4.5c-11.6,7.5-15,22.9-7.5,34.5
				c6.4,9.9,18.9,14,29.9,9.8L76,93.5L95.2,71z M27,50c0-12.7,10.3-23,23-23s23,10.3,23,23S62.7,73,50,73S27,62.7,27,50z"/>
		</g>
	</g>
</g>
<ellipse id="circle14" class="st0" cx="50" cy="50" rx="20.2" ry="20.7"/>
<path class="st2" d="M53.7,42.3c1.6,0.6,3.2,1.4,4.6,2.1c0,6.5-0.2,11.8-4.6,15.5V42.3z M61.4,42.5c-3.3-1.5-7.1-3.7-10.7-4
	c0,8.9,0,17.8,0,26.7C61.2,60.7,61.4,53,61.4,42.5z"/>
<path class="st2" d="M49.4,46.8C47,47,44.3,48,41.8,49.3c-0.1-1.5-0.1-3.1-0.1-4.8c1.4-0.7,3.1-1.5,4.6-2.1V46c1-0.3,2-0.5,3-0.6
	c0-2.3,0-4.6,0-7c-3.5,0.3-7.3,2.5-10.6,4c0,2.7,0,5.3,0.2,7.7c0.1,1.2,0.3,2.4,0.5,3.6c2.3-1.1,4.6-2.3,7-3.2v9.3
	c-1.9-1.6-3.2-3.6-3.9-6.3c-0.9,0.5-1.8,0.9-2.8,1.4c0.3,1.1,0.7,2.1,1.2,3.1c1.9,3.5,4.9,5.6,8.5,7.1C49.4,59,49.4,52.8,49.4,46.8"
	/>
<path class="st2" d="M34,62l4.8,0.7l0.6-0.3c2.6,3.1,6.2,5.4,10.6,7v-2.6c-5-1.9-8.2-4.4-10.1-8.1C38,59.8,36,61,34,62 M66,62
	l-4.8,0.7l-0.6-0.3c-2.6,3.1-6.2,5.4-10.6,7v-2.6c5-1.9,8.2-4.4,10.1-8.1C62.1,59.8,64,61,66,62z M62.6,45.8v-4.1
	c-2.2-1-4.4-2.1-6.6-3c-1.8-0.7-3.5-1.2-5.3-1.3c0-2.3,0-4.5,0-6.8l3,3.8v0.9c4.2,1,8.4,3.3,12,5.3c-0.4,4.4-0.6,9.4-1.4,13.7
	c-0.1,0.5-0.2,1.1-0.4,1.6l0.9,0.5l1.8,4.5c-2-1.1-4-2.3-6-3.4c0.5-1.1,0.9-2.4,1.2-3.7C62.4,51.2,62.5,48.5,62.6,45.8z M37.5,45.8
	v-4.1c2.2-1,4.4-2.1,6.6-3c1.8-0.7,3.5-1.2,5.3-1.3c0-2.3,0-4.5,0-6.8l-3,3.8v0.9c-4.2,1-8.4,3.3-12,5.3C34.8,45,35,50,35.8,54.3
	c0.1,0.6,0.2,1.2,0.3,1.7l-0.9,0.5L33.4,61c2-1.1,4-2.3,6-3.4c-0.5-1.1-0.9-2.4-1.2-3.7C37.7,51.2,37.7,48.5,37.5,45.8z"/>
</svg>
