<?xml version="1.0" encoding="utf-8"?>
<!-- Generator: Adobe Illustrator 23.0.0, SVG Export Plug-In . SVG Version: 6.00 Build 0)  -->
<svg version="1.1" id="Слой_1" xmlns="http://www.w3.org/2000/svg" xmlns:xlink="http://www.w3.org/1999/xlink" x="0px" y="0px"
	 viewBox="0 0 34 40" style="enable-background:new 0 0 34 40;" xml:space="preserve">
<style type="text/css">
	.st0{fill:#303435;}
	.st1{fill-rule:evenodd;clip-rule:evenodd;fill:url(#SVGID_1_);}
	.st2{fill-rule:evenodd;clip-rule:evenodd;fill:url(#SVGID_2_);}
	.st3{fill-rule:evenodd;clip-rule:evenodd;fill:url(#SVGID_3_);}
</style>
<path class="st0" d="M23,8.7c-1.8-0.7-3.5-1.2-5.3-1.3l-1.4,0C14.5,7.5,12.8,8,11,8.7c-2.2,0.9-4.4,2-6.6,3v4.1
	c0.2,2.7,0.2,5.4,0.7,8.1c0.3,1.3,0.7,2.6,1.2,3.7l0.5,1.2c0,0,0,0,0,0c1.9,3.7,5.1,6.2,10.1,8.1h0.2c5-1.9,8.2-4.4,10.1-8L27,28.8
	l0.5-1.3l0.2,0.1c0.5-1.1,0.9-2.4,1.2-3.7c0.5-2.7,0.5-5.4,0.7-8.1v-4.1C27.4,10.7,25.2,9.6,23,8.7z"/>
<linearGradient id="SVGID_1_" gradientUnits="userSpaceOnUse" x1="22.95" y1="389.325" x2="22.95" y2="362.6529" gradientTransform="matrix(1 0 0 -1 0 397.89)">
	<stop  offset="0" style="stop-color:#FFFFFF"/>
	<stop  offset="0" style="stop-color:#ADADB9"/>
	<stop  offset="2.453202e-02" style="stop-color:#ABABB7"/>
	<stop  offset="0.3663" style="stop-color:#9998A1"/>
	<stop  offset="0.6965" style="stop-color:#8E8D94"/>
	<stop  offset="1" style="stop-color:#8A8990"/>
</linearGradient>
<path class="st1" d="M20.6,12.4c1.6,0.6,3.2,1.4,4.6,2.1c0,6.5-0.2,11.8-4.6,15.5V12.4z M28.3,12.5c-3.3-1.5-7.1-3.7-10.7-4
	c0,8.9,0,17.8,0,26.7C28.1,30.7,28.3,23,28.3,12.5z"/>
<linearGradient id="SVGID_2_" gradientUnits="userSpaceOnUse" x1="10.95" y1="389.3193" x2="10.95" y2="362.6472" gradientTransform="matrix(1 0 0 -1 0 397.89)">
	<stop  offset="0" style="stop-color:#FFFFFF"/>
	<stop  offset="0" style="stop-color:#CACAD4"/>
	<stop  offset="0.2378" style="stop-color:#BEBEC9"/>
	<stop  offset="0.6346" style="stop-color:#B1B1BD"/>
	<stop  offset="1" style="stop-color:#ADADB9"/>
</linearGradient>
<path class="st2" d="M16.3,16.8c-2.4,0.2-5.1,1.3-7.6,2.5c-0.1-1.5-0.1-3.1-0.1-4.8c1.4-0.7,3.1-1.5,4.6-2.1v3.7c1-0.3,2-0.5,3-0.6
	c0-2.3,0-4.6,0-7c-3.5,0.3-7.3,2.5-10.6,4c0,2.7,0,5.3,0.2,7.7c0.1,1.2,0.3,2.4,0.5,3.6c2.3-1.1,4.6-2.3,7-3.2v9.3
	c-1.9-1.6-3.2-3.6-3.9-6.3c-0.9,0.5-1.8,0.9-2.8,1.4c0.3,1.1,0.7,2.1,1.2,3.1c1.9,3.5,4.9,5.6,8.5,7.1
	C16.3,29.1,16.3,22.9,16.3,16.8"/>
<linearGradient id="SVGID_3_" gradientUnits="userSpaceOnUse" x1="16.9" y1="397.29" x2="16.9" y2="358.4328" gradientTransform="matrix(1 0 0 -1 0 397.89)">
	<stop  offset="0" style="stop-color:#FFFFFF"/>
	<stop  offset="0" style="stop-color:#1CAED3"/>
	<stop  offset="7.900560e-02" style="stop-color:#1AA2CE"/>
	<stop  offset="0.3217" style="stop-color:#1584C1"/>
	<stop  offset="0.5598" style="stop-color:#116FB8"/>
	<stop  offset="0.7892" style="stop-color:#0F61B3"/>
	<stop  offset="1" style="stop-color:#0E5DB1"/>
</linearGradient>
<path class="st3" d="M0.9,32.1l4.8,0.7l0.6-0.3c2.6,3.1,6.2,5.4,10.6,7v-2.6c-5-1.9-8.2-4.4-10.1-8.1C4.9,29.8,2.9,31,0.9,32.1
	 M32.9,32.1l-4.8,0.7l-0.6-0.3c-2.6,3.1-6.2,5.4-10.6,7v-2.6c5-1.9,8.2-4.4,10.1-8.1C29,29.8,30.9,31,32.9,32.1z M29.5,15.8v-4.1
	c-2.2-1-4.4-2.1-6.6-3c-1.8-0.7-3.5-1.2-5.3-1.3c0-2.3,0-4.5,0-6.8l3,3.8v0.9c4.2,1,8.4,3.3,12,5.3C32.2,15,32,20,31.2,24.3
	c-0.1,0.5-0.2,1.1-0.4,1.6l0.9,0.5l1.8,4.5c-2-1.1-4-2.3-6-3.4c0.5-1.1,0.9-2.4,1.2-3.7C29.3,21.2,29.4,18.5,29.5,15.8z M4.4,15.8
	v-4.1c2.2-1,4.4-2.1,6.6-3c1.8-0.7,3.5-1.2,5.3-1.3c0-2.3,0-4.5,0-6.8l-3,3.8v0.9c-4.2,1-8.4,3.3-12,5.3C1.7,15,1.9,20,2.7,24.3
	C2.8,24.9,2.9,25.5,3,26l-0.9,0.5L0.3,31c2-1.1,4-2.3,6-3.4c-0.5-1.1-0.9-2.4-1.2-3.7C4.6,21.2,4.6,18.5,4.4,15.8z"/>
</svg>
